<?xml version="1.0" encoding="utf-8"?>
<!-- Generator: Adobe Illustrator 16.0.0, SVG Export Plug-In . SVG Version: 6.00 Build 0)  -->
<!DOCTYPE svg PUBLIC "-//W3C//DTD SVG 1.1//EN" "http://www.w3.org/Graphics/SVG/1.1/DTD/svg11.dtd">
<svg version="1.1" id="Layer_1" xmlns="http://www.w3.org/2000/svg" xmlns:xlink="http://www.w3.org/1999/xlink" x="0px" y="0px"
	 width="16px" height="16px" viewBox="0 0 16 16" enable-background="new 0 0 16 16" xml:space="preserve">
<path fill="#494949" d="M15.529,0.592c0.268,0.269,0.134,0.841-0.309,1.281L1.917,15.177c-0.44,0.439-1.015,0.578-1.281,0.31l0,0
	c-0.271-0.269-0.132-0.842,0.309-1.281L14.249,0.9C14.689,0.46,15.26,0.324,15.529,0.592L15.529,0.592z"/>
<path fill="#494949" d="M0.615,0.572c0.269-0.267,0.837-0.136,1.272,0.3L15.034,14.02c0.434,0.436,0.567,1.006,0.3,1.271l0,0
	c-0.27,0.271-0.839,0.136-1.271-0.299L0.915,1.845C0.479,1.409,0.347,0.842,0.615,0.572L0.615,0.572z"/>
</svg>
