<?xml version="1.0" encoding="utf-8"?>
<!-- Generator: Adobe Illustrator 16.0.0, SVG Export Plug-In . SVG Version: 6.00 Build 0)  -->
<!DOCTYPE svg PUBLIC "-//W3C//DTD SVG 1.1//EN" "http://www.w3.org/Graphics/SVG/1.1/DTD/svg11.dtd">
<svg version="1.1" xmlns="http://www.w3.org/2000/svg" xmlns:xlink="http://www.w3.org/1999/xlink" x="0px" y="0px"
	 width="299.324px" height="92.825px" viewBox="0 0 299.324 92.825" enable-background="new 0 0 299.324 92.825"
	 xml:space="preserve">
<g id="Layer_1">
	<text transform="matrix(1 0 0 1 0 80.8247)" fill="#F4F4F4" font-family="'MyriadPro-Regular'" font-size="48">Movie Lookout</text>
</g>
<g id="Layer_4">
</g>
<g id="Layer_3">
	<g id="Layer_3_1_">
		<path display="none" fill="#727777" stroke="#020202" stroke-miterlimit="10" d="M95.688,91.329
			c-0.403,1.551,0.645,3.165,2.339,3.607l0.562,0.143c1.697,0.445,3.395-0.457,3.797-2.003l18.738-71.901
			c0.405-1.55-0.645-3.162-2.339-3.604l-0.558-0.145c-1.697-0.442-3.395,0.457-3.797,2.006L95.688,91.329z"/>
		<path display="none" opacity="0.4" fill="#F9F9F9" enable-background="new    " d="M99.242,89.088
			c-0.05-0.008-0.097-0.034-0.14-0.076l-0.169-0.171c-0.231-0.232-0.298-0.905-0.144-1.498l17.186-66.667
			c0.118-0.463,0.35-0.762,0.561-0.728c0.05,0.009,0.096,0.034,0.139,0.078l0.163,0.169c0.128,0.125,0.211,0.395,0.226,0.729
			c0.011,0.182,0,0.459-0.079,0.77L99.801,88.362C99.681,88.824,99.451,89.123,99.242,89.088L99.242,89.088z"/>
		<path display="none" fill="#7F8282" stroke="#020202" stroke-miterlimit="10" d="M132.102,98.172
			c0.178,1.591,1.732,2.727,3.475,2.534l0.571-0.066c1.742-0.189,3.012-1.638,2.834-3.226l-8.136-73.855
			c-0.178-1.59-1.73-2.725-3.471-2.532L126.8,21.09c-1.742,0.191-3.011,1.637-2.833,3.228L132.102,98.172z"/>
		<path display="none" fill="#666868" stroke="#070707" stroke-miterlimit="10" d="M152.349,88.632
			c0.515,1.529,2.271,2.321,3.933,1.764l0.548-0.182c1.663-0.555,2.595-2.243,2.087-3.771l-23.698-70.981
			c-0.507-1.527-2.269-2.317-3.93-1.764l-0.548,0.185c-1.665,0.554-2.592,2.243-2.085,3.772L152.349,88.632z"/>
		<path display="none" fill="#5F6060" stroke="#000000" stroke-miterlimit="10" d="M115.987,16.891
			c0,2.519,4.867,4.561,11.905,4.561l0,0c7.039,0,11.906-2.042,11.906-4.561V15.75c0-2.519-4.867-4.561-11.906-4.561l0,0
			c-7.038,0-11.905,2.042-11.905,4.561V16.891z"/>
		
			<rect x="98.979" y="7.303" fill="#E5E5E5" stroke="#161616" stroke-width="0.5" stroke-miterlimit="10" width="30.614" height="3.402"/>
		<path fill="#637E7F" stroke="#000000" stroke-miterlimit="10" d="M104.746,9.004c0,4.459,3.614,8.504,8.076,8.504h78.432
			c4.459,0,8.073-4.045,8.073-8.504l0,0c0-4.46-3.614-8.504-8.073-8.504h-78.432C108.357,0.5,104.746,4.544,104.746,9.004
			L104.746,9.004z"/>
		<path fill="#516666" d="M199.962,9.254c0,4.475-3.626,8.103-8.102,8.103c-4.479,0-8.104-3.628-8.104-8.103
			c0-4.477,3.626-8.104,8.104-8.104C196.336,1.15,199.962,4.777,199.962,9.254z"/>
		<path fill="#A8A8A8" d="M194.841,8.597c0,4.113-2.479,7.448-5.54,7.448c-3.064,0-5.545-3.335-5.545-7.448
			c0-4.112,2.48-7.446,5.545-7.446C192.361,1.15,194.841,4.484,194.841,8.597z"/>
		
			<ellipse transform="matrix(0.6021 0.7984 -0.7984 0.6021 76.3941 -146.3714)" fill="#637E7F" cx="185.053" cy="3.461" rx="0.776" ry="4.099"/>
		<path display="none" fill="#6A7272" stroke="#000000" stroke-miterlimit="10" d="M190.098,0.689c5.564-0.422,4.076,0,4.076,0
			s5.152,3.615,5.152,8.076c0,4.459-2.306,8.073-5.152,8.073c0,0-0.286,0.84-4.076,0C186.308,16,186.234,2.813,190.098,0.689z"/>
		<path display="none" fill="#E8E8E8" d="M191.865,13.256c1.162,0,2.847-2.463,2.847-5.103c0-2.642-1.685-5.103-2.847-5.103h1.508
			v10.205H191.865z"/>
		<path fill="#E5E5E5" d="M109.348,4.113c0,0.291,2.843,1.063,6.355,1.063h61.771c3.515,0,6.358-0.772,6.358-1.063l0,0
			c0-0.29-2.846-1.062-6.358-1.062h-61.771C112.19,3.051,109.348,3.823,109.348,4.113L109.348,4.113z"/>
		<path display="none" opacity="0.4" fill="#F9F9F9" enable-background="new    " d="M134.284,93.295
			c-0.047,0.011-0.102,0.004-0.156-0.021l-0.218-0.098c-0.3-0.135-0.603-0.741-0.672-1.349l-7.793-68.404
			c-0.054-0.474,0.055-0.835,0.264-0.88c0.048-0.008,0.102-0.001,0.158,0.024l0.212,0.099c0.166,0.072,0.339,0.293,0.472,0.6
			c0.073,0.164,0.166,0.428,0.201,0.746l7.793,68.406C134.6,92.892,134.493,93.252,134.284,93.295L134.284,93.295z"/>
		<path fill="#CACCCC" d="M192.982,6.478c0,1.532-0.925,2.775-2.064,2.775c-1.145,0-2.067-1.243-2.067-2.775
			c0-1.533,0.923-2.776,2.067-2.776C192.058,3.701,192.982,4.944,192.982,6.478z"/>
	</g>
	<path fill="none" stroke="#020202" stroke-miterlimit="10" d="M199.962,9.254c0,4.475-3.626,8.103-8.102,8.103
		c-4.479,0-8.104-3.628-8.104-8.103c0-4.477,3.626-8.104,8.104-8.104C196.336,1.15,199.962,4.777,199.962,9.254z"/>
</g>
<g id="Layer_5">
</g>
</svg>
